# https://github.com/mikedh/trimesh
v -0.05345200 -0.08016300 -0.00534500
v -0.05285600 -0.07956900 -0.00653300
v -0.05255200 -0.08106100 -0.00623500
v -0.05285600 -0.08135000 -0.00475100
v -0.05345200 -0.08016300 0.00534500
v -0.05345200 0.08016300 -0.00534500
v -0.05166300 -0.08016300 -0.00712700
v -0.05285600 0.08075700 -0.00653300
v -0.05106600 -0.08135000 -0.00653300
v -0.05166300 -0.08196000 -0.00534500
v -0.05285600 -0.08135000 0.00593800
v -0.05285600 -0.08016300 0.00653300
v -0.05345200 0.08016300 0.00534500
v -0.05300200 0.08106100 0.00623500
v -0.05285600 0.08135000 -0.00534500
v -0.05255200 0.08151100 -0.00623500
v 0.05166300 -0.08016300 -0.00712700
v -0.05166300 0.08016300 -0.00712700
v 0.05225900 -0.08135000 -0.00653300
v -0.05166300 -0.08196000 0.00534500
v 0.05166300 -0.08196000 -0.00534500
v -0.05255200 -0.08106100 0.00668000
v -0.05166300 -0.08016300 0.00712700
v -0.05285600 0.08016300 0.00653300
v -0.05225900 0.08135000 0.00653300
v -0.05166300 0.08196000 0.00534500
v -0.05285600 0.08135000 0.00534500
v -0.05166300 0.08016300 0.00712700
v -0.05166300 0.08196000 -0.00534500
v 0.05166300 0.08196000 -0.00534500
v 0.05166300 0.08135000 -0.00653300
v -0.05166300 0.08135000 -0.00653300
v 0.05285600 -0.08016300 -0.00653300
v 0.05300200 -0.08106100 -0.00623500
v 0.05166300 0.08016300 -0.00712700
v 0.05255200 0.08106100 -0.00668000
v 0.05166300 -0.08196000 0.00534500
v 0.05255200 -0.08151100 0.00623500
v -0.05166300 -0.08135000 0.00653300
v 0.05285600 -0.08135000 -0.00534500
v 0.05166300 -0.08135000 0.00653300
v 0.05166300 -0.08016300 0.00712700
v 0.05106600 0.08135000 0.00653300
v 0.05166300 0.08196000 0.00534500
v 0.05166300 0.08016300 0.00712700
v 0.05285600 0.08135000 -0.00593800
v 0.05345200 -0.08016300 -0.00534500
v 0.05285600 0.08016300 -0.00653300
v 0.05285600 -0.08135000 0.00534500
v 0.05345200 -0.08016300 0.00534500
v 0.05285600 -0.08075700 0.00653300
v 0.05255200 0.08106100 0.00623500
v 0.05285600 0.08135000 0.00475100
v 0.05285600 0.07956900 0.00653300
v 0.05345200 0.08016300 -0.00534500
v 0.05345200 0.08016300 0.00534500
vn -0.93912212 -0.24295853 -0.24294197
vn -0.70256132 -0.09957255 -0.70462252
vn -0.57570747 -0.57770550 -0.57863396
vn -0.70624464 -0.70104019 -0.09879863
vn -0.96220699 -0.19020918 0.19487993
vn -0.96222113 0.19499622 -0.19001834
vn -0.24124109 -0.24212490 -0.93977565
vn -0.67440995 0.30046192 -0.67445819
vn -0.09752677 -0.70008273 -0.70737027
vn -0.24429349 -0.93819670 -0.24516860
vn -0.67836990 -0.67066874 0.30002954
vn -0.72627997 -0.07052090 0.68377204
vn -0.96855962 0.17574764 0.17608245
vn -0.73340528 0.48153282 0.47983626
vn -0.73510308 0.67439632 -0.06937633
vn -0.47844923 0.73450596 -0.48123522
vn 0.19355863 -0.18972821 -0.96256858
vn -0.18857401 0.19432151 -0.96264167
vn 0.29848702 -0.67031972 -0.67939456
vn -0.19251631 -0.96112945 0.19790819
vn 0.19692042 -0.96115776 -0.19338591
vn -0.47580327 -0.48179446 0.73585687
vn -0.17495972 -0.17478269 0.96893762
vn -0.68149424 0.06984733 0.72848264
vn -0.29848702 0.67031972 0.67939456
vn -0.19692042 0.96115776 0.19338591
vn -0.68515455 0.72539702 0.06604844
vn -0.19355863 0.18972821 0.96256858
vn -0.17687104 0.96825437 -0.17663554
vn 0.19251631 0.96112945 -0.19790819
vn 0.06572714 0.72574232 -0.68481971
vn -0.06758196 0.67141439 -0.73799417
vn 0.68149424 -0.06984733 -0.72848264
vn 0.73340528 -0.48153282 -0.47983626
vn 0.17495972 0.17478269 -0.96893762
vn 0.47580327 0.48179446 -0.73585687
vn 0.17687104 -0.96825437 0.17663554
vn 0.47844923 -0.73450596 0.48123522
vn -0.06572714 -0.72574232 0.68481971
vn 0.68515455 -0.72539702 -0.06604844
vn 0.06758196 -0.67141439 0.73799417
vn 0.18857401 -0.19432151 0.96264167
vn 0.09752677 0.70008273 0.70737027
vn 0.24429349 0.93819670 0.24516860
vn 0.24124109 0.24212490 0.93977565
vn 0.67836990 0.67066874 -0.30002954
vn 0.96855962 -0.17574764 -0.17608245
vn 0.72627997 0.07052090 -0.68377204
vn 0.73510308 -0.67439632 0.06937633
vn 0.96222113 -0.19499622 0.19001834
vn 0.67440995 -0.30046192 0.67445819
vn 0.57570747 0.57770550 0.57863396
vn 0.70624464 0.70104019 0.09879863
vn 0.70256132 0.09957255 0.70462252
vn 0.96220699 0.19020918 -0.19487993
vn 0.93912212 0.24295853 0.24294197
f 1//1 2//2 3//3
f 1//1 3//3 4//4
f 1//1 4//4 11//11
f 1//1 11//11 5//5
f 1//1 5//5 13//13
f 1//1 13//13 6//6
f 1//1 6//6 8//8
f 1//1 8//8 2//2
f 2//2 7//7 3//3
f 2//2 8//8 18//18
f 2//2 18//18 7//7
f 3//3 7//7 9//9
f 3//3 9//9 10//10
f 3//3 10//10 4//4
f 4//4 10//10 20//20
f 4//4 20//20 11//11
f 5//5 11//11 12//12
f 5//5 12//12 24//24
f 5//5 24//24 13//13
f 6//6 13//13 14//14
f 6//6 14//14 15//15
f 6//6 15//15 16//16
f 6//6 16//16 8//8
f 7//7 17//17 19//19
f 7//7 19//19 9//9
f 7//7 18//18 35//35
f 7//7 35//35 17//17
f 8//8 16//16 18//18
f 9//9 19//19 21//21
f 9//9 21//21 10//10
f 10//10 21//21 37//37
f 10//10 37//37 20//20
f 11//11 20//20 22//22
f 11//11 22//22 12//12
f 12//12 22//22 23//23
f 12//12 23//23 28//28
f 12//12 28//28 24//24
f 13//13 24//24 14//14
f 14//14 25//25 26//26
f 14//14 26//26 27//27
f 14//14 27//27 15//15
f 14//14 24//24 28//28
f 14//14 28//28 25//25
f 15//15 27//27 16//16
f 16//16 26//26 29//29
f 16//16 29//29 30//30
f 16//16 30//30 31//31
f 16//16 31//31 32//32
f 16//16 32//32 18//18
f 16//16 27//27 26//26
f 17//17 33//33 34//34
f 17//17 34//34 19//19
f 17//17 35//35 48//48
f 17//17 48//48 33//33
f 18//18 32//32 36//36
f 18//18 36//36 35//35
f 19//19 34//34 21//21
f 20//20 37//37 38//38
f 20//20 38//38 39//39
f 20//20 39//39 22//22
f 21//21 38//38 37//37
f 21//21 34//34 40//40
f 21//21 40//40 38//38
f 22//22 39//39 41//41
f 22//22 41//41 42//42
f 22//22 42//42 23//23
f 23//23 42//42 45//45
f 23//23 45//45 28//28
f 25//25 28//28 45//45
f 25//25 45//45 43//43
f 25//25 43//43 44//44
f 25//25 44//44 26//26
f 26//26 44//44 30//30
f 26//26 30//30 29//29
f 30//30 46//46 36//36
f 30//30 36//36 31//31
f 30//30 44//44 53//53
f 30//30 53//53 46//46
f 31//31 36//36 32//32
f 33//33 47//47 34//34
f 33//33 48//48 55//55
f 33//33 55//55 47//47
f 34//34 49//49 40//40
f 34//34 47//47 50//50
f 34//34 50//50 49//49
f 35//35 36//36 48//48
f 36//36 46//46 48//48
f 38//38 40//40 49//49
f 38//38 49//49 50//50
f 38//38 50//50 51//51
f 38//38 51//51 42//42
f 38//38 42//42 41//41
f 38//38 41//41 39//39
f 42//42 51//51 54//54
f 42//42 54//54 45//45
f 43//43 45//45 52//52
f 43//43 52//52 44//44
f 44//44 52//52 53//53
f 45//45 54//54 52//52
f 46//46 55//55 48//48
f 46//46 53//53 56//56
f 46//46 56//56 55//55
f 47//47 55//55 56//56
f 47//47 56//56 50//50
f 50//50 56//56 54//54
f 50//50 54//54 51//51
f 52//52 54//54 56//56
f 52//52 56//56 53//53

