# https://github.com/mikedh/trimesh
v 0.01081000 -0.02836500 0.00205900
v 0.01081000 -0.02836500 -0.00257400
v 0.01067900 -0.02836500 0.00244300
v 0.01081000 -0.04684200 0.00205900
v 0.01081000 -0.04684200 -0.00257400
v 0.01068100 -0.04709900 -0.00283100
v 0.01063600 -0.02836500 -0.00291700
v 0.01029300 -0.02836500 0.00257400
v 0.01029300 -0.04684200 0.00257400
v 0.01063600 -0.04701300 0.00240200
v 0.01055200 -0.04722700 0.00231600
v 0.01063600 -0.04718400 0.00205900
v 0.01063600 -0.04718400 -0.00257400
v 0.01029300 -0.04735500 -0.00257400
v 0.01046500 -0.04718400 -0.00291700
v 0.01029300 -0.04684200 -0.00308900
v 0.01063600 -0.04684200 -0.00291700
v 0.01029300 -0.02836500 -0.00308900
v -0.01029300 -0.02836500 0.00257400
v 0.01029300 -0.04718400 0.00240200
v -0.01029300 -0.04684200 0.00257400
v 0.01029300 -0.04735500 0.00205900
v -0.01029300 -0.04735500 -0.00257400
v -0.01012200 -0.04718400 -0.00291700
v -0.01029300 -0.04684200 -0.00308900
v -0.01029300 -0.02836500 -0.00308900
v -0.01063600 -0.02836500 0.00240200
v -0.01055200 -0.04709900 0.00244500
v -0.01029300 -0.04718400 0.00240200
v -0.01029300 -0.04735500 0.00205900
v -0.01063600 -0.04718400 -0.00240200
v -0.01055200 -0.04709900 -0.00283100
v -0.01063600 -0.04666900 -0.00291700
v -0.01034800 -0.02836500 -0.00306100
v -0.01065500 -0.02836500 0.00236600
v -0.01063600 -0.04684200 0.00240200
v -0.01081000 -0.04684200 0.00205900
v -0.01063600 -0.04718400 0.00223000
v -0.01081000 -0.04684200 -0.00257400
v -0.01063600 -0.02836500 -0.00291700
v -0.01081000 -0.02836500 0.00205900
v -0.01081000 -0.02836500 -0.00257400
v -0.01183900 -0.02727600 -0.00411800
v -0.01166500 -0.02710500 -0.00446000
v -0.01158000 -0.02753500 -0.00437500
v -0.01166500 -0.02762400 -0.00394600
v -0.01183900 -0.02727600 0.00360200
v -0.01183900 0.04683800 -0.00411800
v -0.01132200 -0.02727600 -0.00463300
v -0.01166500 0.04700900 -0.00446000
v -0.01115100 -0.02762400 -0.00446000
v -0.01132200 -0.02779500 -0.00411800
v -0.01080800 -0.02836500 -0.00257300
v -0.01166500 -0.02762400 0.00377500
v -0.01158000 -0.02753500 0.00398900
v -0.01166500 -0.02727600 0.00394600
v -0.01171000 0.04709800 0.00386000
v -0.01183900 0.04683800 0.00360200
v -0.01166500 0.04717900 -0.00411800
v -0.01158000 0.04722400 -0.00437500
v 0.01132200 -0.02727600 -0.00463300
v -0.01132200 0.04683800 -0.00463300
v 0.01149400 -0.02762400 -0.00446000
v -0.01029300 -0.02836500 -0.00308800
v -0.01034900 -0.02836500 -0.00306100
v -0.01078200 -0.02836500 -0.00262700
v -0.01080800 -0.02836500 0.00205900
v -0.01132200 -0.02762400 0.00394600
v -0.01065500 -0.02836500 0.00236500
v -0.01132200 -0.02779500 0.00360200
v -0.01132200 -0.02727600 0.00411800
v -0.01166500 0.04683800 0.00394600
v -0.01132200 0.04683800 0.00411800
v -0.01149400 0.04717900 0.00394600
v -0.01132200 0.04735700 0.00360200
v -0.01166500 0.04717900 0.00360200
v -0.01132200 0.04735700 -0.00411800
v 0.01132200 0.04735700 -0.00411800
v 0.01132200 0.04717900 -0.00446000
v -0.01132200 0.04717900 -0.00446000
v 0.01166500 -0.02727600 -0.00446000
v 0.01171000 -0.02753500 -0.00437500
v 0.01132200 0.04683800 -0.00463300
v 0.01158000 0.04709800 -0.00450400
v 0.01132200 -0.02779500 -0.00411800
v 0.01029300 -0.02836500 -0.00308800
v 0.01166500 -0.02762400 -0.00411800
v 0.01132200 -0.02762400 0.00394600
v -0.01029300 -0.02836500 0.00257300
v -0.01033000 -0.02836500 0.00255500
v 0.01132200 -0.02727600 0.00411800
v -0.00617700 -0.01595000 0.00463300
v -0.00617700 0.02315600 0.00463300
v -0.00514500 0.03603100 0.00463300
v 0.01132200 0.04683800 0.00411800
v 0.01115100 0.04717900 0.00394600
v 0.01132200 0.04735700 0.00360200
v 0.01166500 0.04717900 -0.00428900
v 0.01166500 0.04683800 -0.00446000
v 0.01183900 -0.02727600 -0.00411800
v 0.01183900 0.04683800 -0.00411800
v 0.01080800 -0.02836500 -0.00257300
v 0.01079200 -0.02836500 -0.00260900
v 0.01166500 -0.02762400 0.00360200
v 0.01029300 -0.02836500 0.00257300
v 0.01158000 -0.02766100 0.00386000
v 0.01166500 -0.02744600 0.00394600
v 0.00669100 -0.00360100 0.00463300
v 0.00617700 -0.01080600 0.00463300
v -0.00205800 -0.01595000 0.00463300
v -0.00205800 0.03603100 0.00463300
v 0.01166500 0.04666800 0.00394600
v 0.01158000 0.04709800 0.00386000
v 0.00617700 0.02367500 0.00463300
v 0.00669100 0.00618300 0.00463300
v 0.01166500 0.04717900 0.00343100
v 0.01183900 -0.02727600 0.00360200
v 0.01183900 0.04683800 0.00360200
v 0.01080800 -0.02836500 0.00205900
v 0.01067800 -0.02836500 0.00244200
vn 0.73051252 0.67206219 0.12117700
vn 0.73209571 0.65832444 -0.17505656
vn 0.55442260 0.61988364 0.55530160
vn 0.96163656 -0.19744212 0.19045139
vn 0.96857019 -0.17588603 -0.17588603
vn 0.73358660 -0.48155054 -0.47954121
vn 0.57398499 -0.60473833 -0.55211663
vn 0.12057480 0.67222137 0.73046571
vn 0.18887972 -0.19613568 0.96221372
vn 0.67202871 -0.30052074 0.67680477
vn 0.47990098 -0.73536418 0.47847108
vn 0.72798922 -0.68236622 0.06639299
vn 0.67407431 -0.73559632 -0.06724485
vn 0.19345704 -0.96276776 -0.18881899
vn 0.29888190 -0.67533560 -0.67423397
vn 0.19443537 -0.19026523 -0.96228583
vn 0.67638411 -0.06812102 -0.73339216
vn 0.17328320 0.65875409 -0.73213112
vn -0.17327185 0.65876199 0.73212670
vn 0.06838156 -0.68376461 0.72649152
vn -0.17439400 -0.17639198 0.96874796
vn 0.17325120 -0.96919614 0.17505102
vn -0.24091128 -0.94016989 -0.24091977
vn -0.09823546 -0.70489035 -0.70248088
vn -0.24211502 -0.24254938 -0.93944138
vn -0.17562632 0.65817608 -0.73209265
vn -0.56822054 -0.60545323 0.55727175
vn -0.48030883 -0.48097949 0.73345904
vn -0.06748760 -0.72876666 0.68142834
vn -0.18890421 -0.96271251 0.19364871
vn -0.70088021 -0.70661831 -0.09724962
vn -0.57708494 -0.57843489 -0.57652931
vn -0.70207483 -0.09744567 -0.70540433
vn -0.31814896 0.70792323 -0.63057588
vn -0.63010861 0.70507841 0.32531152
vn -0.72845179 -0.06642975 0.68186881
vn -0.96165316 -0.19192476 0.19592877
vn -0.67224226 -0.67813191 0.29703106
vn -0.93880043 -0.24378862 -0.24335337
vn -0.57433191 -0.60477335 -0.55171737
vn -0.73211499 0.65849387 0.17433723
vn -0.73210257 0.65831210 -0.17507430
vn -0.93917963 -0.24119500 -0.24447209
vn -0.70248169 -0.09780424 -0.70494951
vn -0.57833571 -0.57434818 -0.57935479
vn -0.72999265 -0.67065382 -0.13165935
vn -0.96218700 -0.18904605 0.19610652
vn -0.96147289 0.19688772 -0.19184657
vn -0.24302152 -0.24024898 -0.93979836
vn -0.67389394 0.29838979 -0.67589237
vn -0.10492641 -0.69696167 -0.70939049
vn -0.30889148 -0.88025845 -0.36018207
vn -0.35074546 -0.93587179 -0.03349051
vn -0.67945095 -0.65780833 0.32501478
vn -0.48165390 -0.47230258 0.73820038
vn -0.72630609 -0.06687461 0.68411056
vn -0.73253098 0.48330462 0.47939025
vn -0.96899911 0.17389610 0.17550179
vn -0.72975137 0.68053335 -0.06585813
vn -0.48096575 0.73298809 -0.48104096
vn 0.19561061 -0.18802730 -0.96248752
vn -0.19038716 0.19616049 -0.96191153
vn 0.30476231 -0.67160720 -0.67532489
vn -0.03563507 -0.96751326 -0.25029631
vn -0.08621896 -0.98062987 -0.17587311
vn -0.20782883 -0.97290560 -0.10130085
vn -0.34995669 -0.93620624 0.03237597
vn -0.07517775 -0.72233749 0.68744226
vn -0.19947040 -0.97471574 0.10070148
vn -0.20111630 -0.91108775 0.35982127
vn -0.18295571 -0.18167512 0.96618909
vn -0.67665363 0.06724604 0.73322427
vn -0.20103785 0.19892649 0.95917258
vn -0.29375974 0.66994185 0.68182339
vn -0.19851232 0.96076813 0.19369424
vn -0.67469687 0.73558588 0.06080751
vn -0.18092879 0.96680518 -0.18042319
vn 0.19424287 0.96054250 -0.19906738
vn 0.06123185 0.73208199 -0.67845901
vn -0.06626121 0.67696003 -0.73303108
vn 0.67609629 -0.06617442 -0.73383564
vn 0.73708735 -0.47412183 -0.48157111
vn 0.17550179 0.17389610 -0.96899911
vn 0.47931449 0.48277120 -0.73293218
vn 0.27731224 -0.91253615 -0.30062552
vn 0.03667448 -0.96751520 -0.25013862
vn 0.69898974 -0.70839266 -0.09794481
vn 0.07830407 -0.67520570 0.73346147
vn -0.03596381 -0.96754920 0.25011027
vn -0.08634273 -0.98068839 0.17548564
vn 0.19686811 -0.20015802 0.95978107
vn -0.04308859 -0.01446178 0.99896658
vn -0.04987411 0.00027446 0.99875547
vn -0.02952606 0.01821483 0.99939803
vn 0.24725125 0.24923103 0.93634967
vn 0.09648883 0.70016941 0.70742681
vn 0.24491589 0.93824460 0.24436301
vn 0.68024874 0.67176061 -0.29325644
vn 0.72951316 0.06607880 -0.68076732
vn 0.96871335 -0.17506136 -0.17592033
vn 0.96150930 0.19229141 -0.19627499
vn 0.35075013 -0.93595320 -0.03107980
vn 0.21627506 -0.97124105 -0.09957877
vn 0.77579746 -0.62381707 0.09481855
vn 0.02463781 -0.96809057 0.24938649
vn 0.49109066 -0.70829024 0.50710443
vn 0.67408130 -0.29851286 0.67565115
vn 0.05535776 -0.00024495 0.99846655
vn 0.03921552 -0.00803306 0.99919849
vn 0.00327919 -0.02288457 0.99973274
vn 0.00661913 0.02306721 0.99971200
vn 0.70246426 0.09856077 0.70486150
vn 0.57669667 0.57862441 0.57672762
vn 0.04379578 0.00333461 0.99903494
vn 0.05534938 0.00005912 0.99846705
vn 0.70626792 0.70141037 0.09596414
vn 0.96192025 -0.19455042 0.19198843
vn 0.93914442 0.24372536 0.24208615
vn 0.35054531 -0.93628874 0.02194052
vn 0.20125559 -0.96517276 0.16714585
f 1//1 2//2 7//7
f 1//1 7//7 18//18
f 1//1 18//18 26//26
f 1//1 26//26 34//34
f 1//1 34//34 40//40
f 1//1 40//40 42//42
f 1//1 42//42 41//41
f 1//1 41//41 35//35
f 1//1 35//35 27//27
f 1//1 27//27 19//19
f 1//1 19//19 8//8
f 1//1 8//8 3//3
f 1//1 3//3 4//4
f 1//1 4//4 5//5
f 1//1 5//5 2//2
f 2//2 5//5 6//6
f 2//2 6//6 7//7
f 3//3 8//8 9//9
f 3//3 9//9 10//10
f 3//3 10//10 4//4
f 4//4 6//6 5//5
f 4//4 10//10 11//11
f 4//4 11//11 12//12
f 4//4 12//12 6//6
f 6//6 12//12 13//13
f 6//6 13//13 14//14
f 6//6 14//14 15//15
f 6//6 15//15 16//16
f 6//6 16//16 17//17
f 6//6 17//17 7//7
f 7//7 17//17 16//16
f 7//7 16//16 18//18
f 8//8 19//19 21//21
f 8//8 21//21 9//9
f 9//9 20//20 11//11
f 9//9 11//11 10//10
f 9//9 21//21 29//29
f 9//9 29//29 20//20
f 11//11 13//13 12//12
f 11//11 20//20 22//22
f 11//11 22//22 14//14
f 11//11 14//14 13//13
f 14//14 22//22 30//30
f 14//14 30//30 23//23
f 14//14 23//23 24//24
f 14//14 24//24 15//15
f 15//15 24//24 25//25
f 15//15 25//25 16//16
f 16//16 25//25 26//26
f 16//16 26//26 18//18
f 19//19 27//27 28//28
f 19//19 28//28 21//21
f 20//20 29//29 30//30
f 20//20 30//30 22//22
f 21//21 28//28 29//29
f 23//23 30//30 38//38
f 23//23 38//38 31//31
f 23//23 31//31 32//32
f 23//23 32//32 24//24
f 24//24 32//32 25//25
f 25//25 32//32 33//33
f 25//25 33//33 34//34
f 25//25 34//34 26//26
f 27//27 35//35 36//36
f 27//27 36//36 28//28
f 28//28 30//30 29//29
f 28//28 36//36 37//37
f 28//28 37//37 38//38
f 28//28 38//38 30//30
f 31//31 38//38 37//37
f 31//31 37//37 39//39
f 31//31 39//39 32//32
f 32//32 39//39 33//33
f 33//33 39//39 42//42
f 33//33 42//42 40//40
f 33//33 40//40 34//34
f 35//35 41//41 37//37
f 35//35 37//37 36//36
f 37//37 41//41 42//42
f 37//37 42//42 39//39
f 43//43 44//44 45//45
f 43//43 45//45 46//46
f 43//43 46//46 54//54
f 43//43 54//54 47//47
f 43//43 47//47 58//58
f 43//43 58//58 48//48
f 43//43 48//48 50//50
f 43//43 50//50 44//44
f 44//44 49//49 45//45
f 44//44 50//50 62//62
f 44//44 62//62 49//49
f 45//45 49//49 51//51
f 45//45 51//51 52//52
f 45//45 52//52 46//46
f 46//46 52//52 53//53
f 46//46 53//53 67//67
f 46//46 67//67 54//54
f 47//47 54//54 55//55
f 47//47 55//55 56//56
f 47//47 56//56 57//57
f 47//47 57//57 58//58
f 48//48 58//58 57//57
f 48//48 57//57 59//59
f 48//48 59//59 60//60
f 48//48 60//60 50//50
f 49//49 61//61 63//63
f 49//49 63//63 51//51
f 49//49 62//62 83//83
f 49//49 83//83 61//61
f 50//50 60//60 62//62
f 51//51 63//63 86//86
f 51//51 86//86 64//64
f 51//51 64//64 52//52
f 52//52 64//64 65//65
f 52//52 65//65 40//40
f 52//52 40//40 66//66
f 52//52 66//66 53//53
f 53//53 66//66 40//40
f 53//53 40//40 65//65
f 53//53 65//65 64//64
f 53//53 64//64 86//86
f 53//53 86//86 7//7
f 53//53 7//7 103//103
f 53//53 103//103 102//102
f 53//53 102//102 119//119
f 53//53 119//119 120//120
f 53//53 120//120 105//105
f 53//53 105//105 89//89
f 53//53 89//89 90//90
f 53//53 90//90 27//27
f 53//53 27//27 69//69
f 53//53 69//69 67//67
f 54//54 68//68 55//55
f 54//54 67//67 69//69
f 54//54 69//69 27//27
f 54//54 27//27 70//70
f 54//54 70//70 68//68
f 55//55 71//71 56//56
f 55//55 68//68 71//71
f 56//56 71//71 73//73
f 56//56 73//73 72//72
f 56//56 72//72 57//57
f 57//57 72//72 73//73
f 57//57 73//73 74//74
f 57//57 74//74 75//75
f 57//57 75//75 76//76
f 57//57 76//76 59//59
f 59//59 76//76 75//75
f 59//59 75//75 77//77
f 59//59 77//77 60//60
f 60//60 77//77 78//78
f 60//60 78//78 79//79
f 60//60 79//79 80//80
f 60//60 80//80 62//62
f 61//61 81//81 82//82
f 61//61 82//82 63//63
f 61//61 83//83 84//84
f 61//61 84//84 81//81
f 62//62 80//80 84//84
f 62//62 84//84 83//83
f 63//63 85//85 86//86
f 63//63 82//82 87//87
f 63//63 87//87 85//85
f 68//68 88//88 91//91
f 68//68 91//91 71//71
f 68//68 70//70 89//89
f 68//68 89//89 105//105
f 68//68 105//105 88//88
f 27//27 90//90 70//70
f 70//70 90//90 89//89
f 71//71 91//91 110//110
f 71//71 110//110 92//92
f 71//71 92//92 93//93
f 71//71 93//93 73//73
f 73//73 93//93 94//94
f 73//73 94//94 111//111
f 73//73 111//111 95//95
f 73//73 95//95 96//96
f 73//73 96//96 74//74
f 74//74 96//96 97//97
f 74//74 97//97 75//75
f 75//75 97//97 78//78
f 75//75 78//78 77//77
f 78//78 98//98 84//84
f 78//78 84//84 79//79
f 78//78 97//97 116//116
f 78//78 116//116 98//98
f 79//79 84//84 80//80
f 81//81 84//84 99//99
f 81//81 99//99 82//82
f 82//82 100//100 87//87
f 82//82 99//99 101//101
f 82//82 101//101 100//100
f 84//84 98//98 101//101
f 84//84 101//101 99//99
f 85//85 87//87 102//102
f 85//85 102//102 103//103
f 85//85 103//103 7//7
f 85//85 7//7 86//86
f 87//87 100//100 117//117
f 87//87 117//117 104//104
f 87//87 104//104 119//119
f 87//87 119//119 102//102
f 88//88 105//105 106//106
f 88//88 106//106 107//107
f 88//88 107//107 91//91
f 91//91 108//108 109//109
f 91//91 109//109 110//110
f 91//91 107//107 112//112
f 91//91 112//112 95//95
f 91//91 95//95 115//115
f 91//91 115//115 108//108
f 92//92 110//110 109//109
f 92//92 109//109 108//108
f 92//92 108//108 115//115
f 92//92 115//115 114//114
f 92//92 114//114 111//111
f 92//92 111//111 94//94
f 92//92 94//94 93//93
f 95//95 112//112 113//113
f 95//95 113//113 96//96
f 95//95 111//111 114//114
f 95//95 114//114 115//115
f 96//96 113//113 97//97
f 97//97 113//113 116//116
f 98//98 116//116 118//118
f 98//98 118//118 101//101
f 100//100 101//101 118//118
f 100//100 118//118 117//117
f 104//104 117//117 107//107
f 104//104 107//107 106//106
f 104//104 106//106 119//119
f 105//105 120//120 106//106
f 106//106 120//120 119//119
f 107//107 117//117 118//118
f 107//107 118//118 112//112
f 112//112 118//118 113//113
f 113//113 118//118 116//116

